<?xml version="1.0" encoding="UTF-8" standalone="no"?>
<!DOCTYPE svg PUBLIC "-//W3C//DTD SVG 1.1//EN"
 "http://www.w3.org/Graphics/SVG/1.1/DTD/svg11.dtd">
<!-- Generated by graphviz version 2.38.0 (20140413.2041)
 -->
<!-- Title: G Pages: 1 -->
<svg width="623pt" height="575pt"
 viewBox="0.00 0.00 622.81 575.00" xmlns="http://www.w3.org/2000/svg" xmlns:xlink="http://www.w3.org/1999/xlink">
<g id="graph0" class="graph" transform="scale(1 1) rotate(0) translate(4 571)">
<title>G</title>
<polygon fill="white" stroke="none" points="-4,4 -4,-571 618.81,-571 618.81,4 -4,4"/>
<g id="clust1" class="cluster"><title>cluster_Global</title>
<path fill="none" stroke="gray" d="M155.689,-98C155.689,-98 594.81,-98 594.81,-98 600.81,-98 606.81,-104 606.81,-110 606.81,-110 606.81,-547 606.81,-547 606.81,-553 600.81,-559 594.81,-559 594.81,-559 155.689,-559 155.689,-559 149.689,-559 143.689,-553 143.689,-547 143.689,-547 143.689,-110 143.689,-110 143.689,-104 149.689,-98 155.689,-98"/>
<text text-anchor="middle" x="375.25" y="-546.2" font-family="Times,serif" font-size="11.00" fill="gray">Global</text>
</g>
<g id="clust2" class="cluster"><title>cluster_\League</title>
<path fill="none" stroke="gray" d="M476.996,-312C476.996,-312 572.603,-312 572.603,-312 578.603,-312 584.603,-318 584.603,-324 584.603,-324 584.603,-476 584.603,-476 584.603,-482 578.603,-488 572.603,-488 572.603,-488 476.996,-488 476.996,-488 470.996,-488 464.996,-482 464.996,-476 464.996,-476 464.996,-324 464.996,-324 464.996,-318 470.996,-312 476.996,-312"/>
<text text-anchor="middle" x="524.799" y="-475.2" font-family="Times,serif" font-size="11.00" fill="gray">League</text>
</g>
<g id="clust3" class="cluster"><title>cluster_\League\OAuth2</title>
<path fill="none" stroke="gray" d="M484.996,-320C484.996,-320 564.603,-320 564.603,-320 570.603,-320 576.603,-326 576.603,-332 576.603,-332 576.603,-449 576.603,-449 576.603,-455 570.603,-461 564.603,-461 564.603,-461 484.996,-461 484.996,-461 478.996,-461 472.996,-455 472.996,-449 472.996,-449 472.996,-332 472.996,-332 472.996,-326 478.996,-320 484.996,-320"/>
<text text-anchor="middle" x="524.799" y="-448.2" font-family="Times,serif" font-size="11.00" fill="gray">OAuth2</text>
</g>
<g id="clust4" class="cluster"><title>cluster_\League\OAuth2\Client</title>
<path fill="none" stroke="gray" d="M492.996,-328C492.996,-328 556.603,-328 556.603,-328 562.603,-328 568.603,-334 568.603,-340 568.603,-340 568.603,-422 568.603,-422 568.603,-428 562.603,-434 556.603,-434 556.603,-434 492.996,-434 492.996,-434 486.996,-434 480.996,-428 480.996,-422 480.996,-422 480.996,-340 480.996,-340 480.996,-334 486.996,-328 492.996,-328"/>
<text text-anchor="middle" x="524.799" y="-421.2" font-family="Times,serif" font-size="11.00" fill="gray">Client</text>
</g>
<g id="clust5" class="cluster"><title>cluster_\League\OAuth2\Client\Provider</title>
<path fill="none" stroke="gray" d="M500.996,-336C500.996,-336 548.603,-336 548.603,-336 554.603,-336 560.603,-342 560.603,-348 560.603,-348 560.603,-395 560.603,-395 560.603,-401 554.603,-407 548.603,-407 548.603,-407 500.996,-407 500.996,-407 494.996,-407 488.996,-401 488.996,-395 488.996,-395 488.996,-348 488.996,-348 488.996,-342 494.996,-336 500.996,-336"/>
<text text-anchor="middle" x="524.799" y="-394.2" font-family="Times,serif" font-size="11.00" fill="gray">Provider</text>
</g>
<!-- \\League\\OAuth2\\Client\\Provider\\Google -->
<g id="node1" class="node"><title>\\League\\OAuth2\\Client\\Provider\\Google</title>
<polygon fill="none" stroke="black" points="552.407,-380 497.191,-380 497.191,-344 552.407,-344 552.407,-380"/>
<text text-anchor="middle" x="524.799" y="-358.7" font-family="Courier,monospace" font-size="11.00">Google</text>
</g>
<!-- \\League\\OAuth2\\Client\\Provider\\AbstractProvider -->
<g id="node9" class="node"><title>\\League\\OAuth2\\Client\\Provider\\AbstractProvider</title>
<ellipse fill="none" stroke="black" cx="189.394" cy="-72" rx="189.289" ry="18"/>
<text text-anchor="middle" x="189.394" y="-67.8" font-family="Times,serif" font-size="14.00" fill="gray">\League\OAuth2\Client\Provider\AbstractProvider</text>
</g>
<!-- \\League\\OAuth2\\Client\\Provider\\Google&#45;&gt;\\League\\OAuth2\\Client\\Provider\\AbstractProvider -->
<g id="edge3" class="edge"><title>\\League\\OAuth2\\Client\\Provider\\Google&#45;&gt;\\League\\OAuth2\\Client\\Provider\\AbstractProvider</title>
<path fill="none" stroke="black" d="M496.958,-360.137C481.548,-357.7 462.909,-352.218 450.789,-340 370.555,-259.127 465.834,-167.49 378.789,-94 374.979,-90.7837 370.961,-87.8709 366.773,-85.2369"/>
<polygon fill="none" stroke="black" points="368.371,-82.1191 357.948,-80.214 364.908,-88.2027 368.371,-82.1191"/>
</g>
<!-- \\PHPMailer -->
<g id="node2" class="node"><title>\\PHPMailer</title>
<polygon fill="none" stroke="black" points="227.305,-532 151.483,-532 151.483,-496 227.305,-496 227.305,-532"/>
<text text-anchor="middle" x="189.394" y="-510.7" font-family="Courier,monospace" font-size="11.00">PHPMailer</text>
</g>
<!-- \\phpmailerException -->
<g id="node3" class="node"><title>\\phpmailerException</title>
<polygon fill="none" stroke="black" points="592.119,-304 457.48,-304 457.48,-268 592.119,-268 592.119,-304"/>
<text text-anchor="middle" x="524.799" y="-282.7" font-family="Courier,monospace" font-size="11.00">phpmailerException</text>
</g>
<!-- \\Exception -->
<g id="node8" class="node"><title>\\Exception</title>
<ellipse fill="none" stroke="black" cx="189.394" cy="-18" rx="48.3341" ry="18"/>
<text text-anchor="middle" x="189.394" y="-13.8" font-family="Times,serif" font-size="14.00" fill="gray">\Exception</text>
</g>
<!-- \\phpmailerException&#45;&gt;\\Exception -->
<g id="edge1" class="edge"><title>\\phpmailerException&#45;&gt;\\Exception</title>
<path fill="none" stroke="black" d="M461.876,-267.964C457.842,-265.364 454.083,-262.394 450.789,-259 380.89,-186.997 455.908,-109.208 378.789,-45 342.037,-14.4011 286.623,-9.77116 245.396,-11.5268"/>
<polygon fill="none" stroke="black" points="245.028,-8.04194 235.241,-12.0989 245.422,-15.0309 245.028,-8.04194"/>
</g>
<!-- \\PHPMailerOAuth -->
<g id="node4" class="node"><title>\\PHPMailerOAuth</title>
<polygon fill="none" stroke="black" points="579.215,-532 470.383,-532 470.383,-496 579.215,-496 579.215,-532"/>
<text text-anchor="middle" x="524.799" y="-510.7" font-family="Courier,monospace" font-size="11.00">PHPMailerOAuth</text>
</g>
<!-- \\PHPMailerOAuth&#45;&gt;\\PHPMailer -->
<g id="edge2" class="edge"><title>\\PHPMailerOAuth&#45;&gt;\\PHPMailer</title>
<path fill="none" stroke="black" d="M470.232,-514C405.849,-514 298.838,-514 237.486,-514"/>
<polygon fill="none" stroke="black" points="237.313,-510.5 227.313,-514 237.313,-517.5 237.313,-510.5"/>
</g>
<!-- \\PHPMailerOAuthGoogle -->
<g id="node5" class="node"><title>\\PHPMailerOAuthGoogle</title>
<polygon fill="none" stroke="black" points="598.821,-250 450.778,-250 450.778,-214 598.821,-214 598.821,-250"/>
<text text-anchor="middle" x="524.799" y="-228.7" font-family="Courier,monospace" font-size="11.00">PHPMailerOAuthGoogle</text>
</g>
<!-- \\POP3 -->
<g id="node6" class="node"><title>\\POP3</title>
<polygon fill="none" stroke="black" points="551.799,-196 497.799,-196 497.799,-160 551.799,-160 551.799,-196"/>
<text text-anchor="middle" x="524.799" y="-174.7" font-family="Courier,monospace" font-size="11.00">POP3</text>
</g>
<!-- \\SMTP -->
<g id="node7" class="node"><title>\\SMTP</title>
<polygon fill="none" stroke="black" points="551.799,-142 497.799,-142 497.799,-106 551.799,-106 551.799,-142"/>
<text text-anchor="middle" x="524.799" y="-120.7" font-family="Courier,monospace" font-size="11.00">SMTP</text>
</g>
</g>
</svg>
