<?xml version="1.0" encoding="UTF-8" standalone="no"?>
<!DOCTYPE svg PUBLIC "-//W3C//DTD SVG 1.1//EN"
 "http://www.w3.org/Graphics/SVG/1.1/DTD/svg11.dtd">
<!-- Generated by graphviz version 2.40.1 (20161225.0304)
 -->
<!-- Title: G Pages: 1 -->
<svg width="284pt" height="381pt"
 viewBox="0.00 0.00 284.24 381.00" xmlns="http://www.w3.org/2000/svg" xmlns:xlink="http://www.w3.org/1999/xlink">
<g id="graph0" class="graph" transform="scale(1 1) rotate(0) translate(4 377)">
<title>G</title>
<polygon fill="#ffffff" stroke="transparent" points="-4,4 -4,-377 280.2437,-377 280.2437,4 -4,4"/>
<g id="clust1" class="cluster">
<title>cluster_Global</title>
<path fill="none" stroke="#c0c0c0" d="M156.834,-8C156.834,-8 256.2437,-8 256.2437,-8 262.2437,-8 268.2437,-14 268.2437,-20 268.2437,-20 268.2437,-353 268.2437,-353 268.2437,-359 262.2437,-365 256.2437,-365 256.2437,-365 156.834,-365 156.834,-365 150.834,-365 144.834,-359 144.834,-353 144.834,-353 144.834,-20 144.834,-20 144.834,-14 150.834,-8 156.834,-8"/>
<text text-anchor="middle" x="206.5388" y="-352.2" font-family="Times,serif" font-size="11.00" fill="#c0c0c0">Global</text>
</g>
<g id="clust2" class="cluster">
<title>cluster_\PHPMailer</title>
<path fill="none" stroke="#c0c0c0" d="M164.834,-16C164.834,-16 248.2437,-16 248.2437,-16 254.2437,-16 260.2437,-22 260.2437,-28 260.2437,-28 260.2437,-326 260.2437,-326 260.2437,-332 254.2437,-338 248.2437,-338 248.2437,-338 164.834,-338 164.834,-338 158.834,-338 152.834,-332 152.834,-326 152.834,-326 152.834,-28 152.834,-28 152.834,-22 158.834,-16 164.834,-16"/>
<text text-anchor="middle" x="206.5388" y="-325.2" font-family="Times,serif" font-size="11.00" fill="#c0c0c0">PHPMailer</text>
</g>
<g id="clust3" class="cluster">
<title>cluster_\PHPMailer\PHPMailer</title>
<path fill="none" stroke="#c0c0c0" d="M172.834,-24C172.834,-24 240.2437,-24 240.2437,-24 246.2437,-24 252.2437,-30 252.2437,-36 252.2437,-36 252.2437,-299 252.2437,-299 252.2437,-305 246.2437,-311 240.2437,-311 240.2437,-311 172.834,-311 172.834,-311 166.834,-311 160.834,-305 160.834,-299 160.834,-299 160.834,-36 160.834,-36 160.834,-30 166.834,-24 172.834,-24"/>
<text text-anchor="middle" x="206.5388" y="-298.2" font-family="Times,serif" font-size="11.00" fill="#c0c0c0">PHPMailer</text>
</g>
<!-- \\PHPMailer\\PHPMailer\\Exception -->
<g id="node1" class="node">
<title>\\PHPMailer\\PHPMailer\\Exception</title>
<polygon fill="none" stroke="#000000" points="244.4496,-284 168.628,-284 168.628,-248 244.4496,-248 244.4496,-284"/>
<text text-anchor="middle" x="206.5388" y="-262.7" font-family="Courier,monospace" font-size="11.00" fill="#000000">Exception</text>
</g>
<!-- \\Exception -->
<g id="node6" class="node">
<title>\\Exception</title>
<ellipse fill="none" stroke="#000000" cx="48.417" cy="-266" rx="48.3341" ry="18"/>
<text text-anchor="middle" x="48.417" y="-261.8" font-family="Times,serif" font-size="14.00" fill="#c0c0c0">\Exception</text>
</g>
<!-- \\PHPMailer\\PHPMailer\\Exception&#45;&gt;\\Exception -->
<g id="edge1" class="edge">
<title>\\PHPMailer\\PHPMailer\\Exception&#45;&gt;\\Exception</title>
<path fill="none" stroke="#000000" d="M168.6647,-266C150.2971,-266 127.8147,-266 107.2806,-266"/>
<polygon fill="none" stroke="#000000" points="107.069,-262.5001 97.0689,-266 107.0689,-269.5001 107.069,-262.5001"/>
</g>
<!-- \\PHPMailer\\PHPMailer\\OAuth -->
<g id="node2" class="node">
<title>\\PHPMailer\\PHPMailer\\OAuth</title>
<polygon fill="none" stroke="#000000" points="233.5388,-230 179.5388,-230 179.5388,-194 233.5388,-194 233.5388,-230"/>
<text text-anchor="middle" x="206.5388" y="-208.7" font-family="Courier,monospace" font-size="11.00" fill="#000000">OAuth</text>
</g>
<!-- \\PHPMailer\\PHPMailer\\PHPMailer -->
<g id="node3" class="node">
<title>\\PHPMailer\\PHPMailer\\PHPMailer</title>
<polygon fill="none" stroke="#000000" points="244.4496,-176 168.628,-176 168.628,-140 244.4496,-140 244.4496,-176"/>
<text text-anchor="middle" x="206.5388" y="-154.7" font-family="Courier,monospace" font-size="11.00" fill="#000000">PHPMailer</text>
</g>
<!-- \\PHPMailer\\PHPMailer\\POP3 -->
<g id="node4" class="node">
<title>\\PHPMailer\\PHPMailer\\POP3</title>
<polygon fill="none" stroke="#000000" points="233.5388,-122 179.5388,-122 179.5388,-86 233.5388,-86 233.5388,-122"/>
<text text-anchor="middle" x="206.5388" y="-100.7" font-family="Courier,monospace" font-size="11.00" fill="#000000">POP3</text>
</g>
<!-- \\PHPMailer\\PHPMailer\\SMTP -->
<g id="node5" class="node">
<title>\\PHPMailer\\PHPMailer\\SMTP</title>
<polygon fill="none" stroke="#000000" points="233.5388,-68 179.5388,-68 179.5388,-32 233.5388,-32 233.5388,-68"/>
<text text-anchor="middle" x="206.5388" y="-46.7" font-family="Courier,monospace" font-size="11.00" fill="#000000">SMTP</text>
</g>
</g>
</svg>
